<svg width="32" height="32" viewBox="0 0 32 32" fill="none" xmlns="http://www.w3.org/2000/svg">
<path d="M16 0C7.16564 0 0 7.16564 0 16C0 24.8344 7.16564 32 16 32C24.8344 32 32 24.8344 32 16C32 7.16564 24.8344 0 16 0ZM24.1145 17.7342C24.8671 18.454 25.6524 19.1411 26.3067 19.9591C26.6012 20.319 26.8957 20.6789 27.092 21.1043C27.3865 21.6933 27.1247 22.3476 26.6012 22.3804H23.3292C22.4785 22.4458 21.8241 22.1186 21.2352 21.5297C20.7771 21.0716 20.3517 20.5808 19.9264 20.09C19.7628 19.8937 19.5665 19.6973 19.3374 19.5665C18.8793 19.272 18.4867 19.3701 18.2577 19.8282C17.9959 20.319 17.9305 20.8425 17.8978 21.3661C17.865 22.1513 17.636 22.3476 16.8507 22.3804C15.182 22.4458 13.6115 22.2168 12.1718 21.3661C10.8957 20.6135 9.88139 19.5992 9.03067 18.4213C7.32924 16.1309 6.05317 13.6115 4.87526 11.0266C4.6135 10.4376 4.80982 10.1431 5.46421 10.1104C6.54397 10.0777 7.591 10.0777 8.67076 10.1104C9.09611 10.1104 9.39059 10.3722 9.55419 10.7648C10.1431 12.1718 10.8303 13.546 11.7137 14.7894C11.9427 15.1166 12.2045 15.4438 12.5317 15.7055C12.9243 15.9673 13.1861 15.8691 13.3824 15.4438C13.4806 15.182 13.546 14.8875 13.5787 14.593C13.6769 13.6115 13.6769 12.6299 13.5133 11.6483C13.4151 10.9939 13.0879 10.6012 12.4663 10.4703C12.1391 10.4049 12.2045 10.3067 12.3354 10.1104C12.5971 9.81595 12.8589 9.61963 13.3497 9.61963H17.047C17.636 9.75051 17.7669 9.97955 17.8323 10.5685V14.6912C17.8323 14.9202 17.9305 15.6074 18.3558 15.7382C18.683 15.8364 18.9121 15.5746 19.1084 15.3783C19.9918 14.4294 20.6135 13.317 21.2025 12.1718C21.4642 11.6483 21.6605 11.1247 21.8896 10.6012C22.0532 10.2086 22.2822 10.0123 22.7403 10.0123H26.3067C26.4049 10.0123 26.5031 10.0123 26.6339 10.045C27.2229 10.1431 27.3865 10.4049 27.2229 10.9939C26.9284 11.91 26.3722 12.6953 25.816 13.4479C25.227 14.2658 24.5726 15.0511 23.9836 15.9018C23.3947 16.6871 23.4274 17.0798 24.1145 17.7342Z" fill="#B3B3B3"/>
</svg>
